<?xml version="1.0" encoding="utf-8"?>
<!-- Generator: Adobe Illustrator 22.1.0, SVG Export Plug-In . SVG Version: 6.00 Build 0)  -->
<svg version="1.1" id="Layer_1" xmlns="http://www.w3.org/2000/svg" xmlns:xlink="http://www.w3.org/1999/xlink" x="0px" y="0px"
	 viewBox="0 0 19.7 19.7" style="enable-background:new 0 0 19.7 19.7;" xml:space="preserve">
<style type="text/css">
	.st0{fill:none;stroke:#FB6721;stroke-width:2;}
	.st1{fill:#FB6721;}
</style>
<title>checkbox-checked-icon</title>
<path class="st0" d="M9.9,1L9.9,1c4.9,0,8.9,3.9,8.9,8.8c0,0,0,0,0,0l0,0c0,4.9-4,8.9-8.9,8.9c0,0,0,0,0,0l0,0C5,18.7,1,14.8,1,9.9
	c0,0,0,0,0,0l0,0C1,5,5,1,9.9,1C9.8,1,9.8,1,9.9,1z"/>
<circle class="st1" cx="9.9" cy="9.9" r="4.9"/>
</svg>
